# xmcd
# 
# Track frame offsets:
#     182
#     13615
#     27232
#     39947
#     50755
#     65207
#     78585
#     92665
#     109067
#     118592
#     130505
#     151587
#     161870
#     176707
#     187980
#     199175
#     212692
#     224532
#     239880
#     249925
#     262885
#     275815
#     291455
#     304815
# 
# Disc length: 4258
# 
# Revision: 3
# Processed by: cddbd v1.5.2PL0 Copyright (c) Steve Scherf et al.
# Submitted via: BonkEnc v1.0.8
# 
DISCID=6510a018
DTITLE=Tião Carreiro and Pardinho - Dose Dupla
DYEAR=1996
DGENRE=Sertanejo
TTITLE0=Pagode em Brasília
TTITLE1=Bandeira Branca
TTITLE2=Rei sem Coroa
TTITLE3=Falou e Disse
TTITLE4=Chora Viola
TTITLE5=Pagode na Praça
TTITLE6=Rei do Pagode
TTITLE7=Em Tempo de Avanço
TTITLE8=Começo do Fim
TTITLE9=Na Barba do Leão
TTITLE10=Pagode do Ala
TTITLE11=Linha de Frente
TTITLE12=Nove e Nove
TTITLE13=Empreitada Perigosa
TTITLE14=A Ferro e Fogo
TTITLE15=Tudo Serve
TTITLE16=Sete Flechas
TTITLE17=Uma Coisa Puxa Outra
TTITLE18=Não É Mole Não
TTITLE19=Bi-Campeão Mundial
TTITLE20=Adeus São Paulo
TTITLE21=Ponta de Espada
TTITLE22=É Isso que o Povo Gosta
TTITLE23=Tudo Certo
EXTD=YEAR: 1996
EXTT0=
EXTT1=
EXTT2=
EXTT3=
EXTT4=
EXTT5=
EXTT6=
EXTT7=
EXTT8=
EXTT9=
EXTT10=
EXTT11=
EXTT12=
EXTT13=
EXTT14=
EXTT15=
EXTT16=
EXTT17=
EXTT18=
EXTT19=
EXTT20=
EXTT21=
EXTT22=
EXTT23=
PLAYORDER=
